Coordinates
version=1
nRows=11
nColumns=40
inDegrees=yes

Units are S.I. units (second, meters, Newtons, ...)
If the header above contains a line with 'inDegrees', this indicates whether rotational values are in degrees (yes) or radians (no).

endheader
time	pelvis_tilt	pelvis_list	pelvis_rotation	pelvis_tx	pelvis_ty	pelvis_tz	hip_flexion_r	hip_adduction_r	hip_rotation_r	knee_angle_r	knee_angle_r_beta	ankle_angle_r	subtalar_angle_r	mtp_angle_r	hip_flexion_l	hip_adduction_l	hip_rotation_l	knee_angle_l	knee_angle_l_beta	ankle_angle_l	subtalar_angle_l	mtp_angle_l	lumbar_extension	lumbar_bending	lumbar_rotation	arm_flex_r	arm_add_r	arm_rot_r	elbow_flex_r	pro_sup_r	wrist_flex_r	wrist_dev_r	arm_flex_l	arm_add_l	arm_rot_l	elbow_flex_l	pro_sup_l	wrist_flex_l	wrist_dev_l
      0.18000000	      3.37343739	      5.33955475	     -0.59816318	     -0.90549055	      0.95267550	      0.26385862	     -8.56980140	     -8.54356031	     -6.01997810	     45.16384944	      0.78825788	     -9.83192664	      0.00000000	      0.00000000	     16.33798534	      5.52760924	     -3.37574439	     20.03300128	      0.34964183	     -1.51955395	      0.00000000	      0.00000000	    -17.96752898	     -9.69258615	      3.35632841	     -9.39014508	     -3.81912966	    -12.94893109	     57.52711812	     76.17942506	      2.70231388	      5.95104963	    -13.55167775	     -6.53950884	     -4.55403526	     36.28138099	     89.05002691	     -7.27487067	     12.37729836
      0.19000000	      3.18090331	      5.44302541	     -0.35917300	     -0.89353530	      0.95399343	      0.26238753	     -6.82680854	     -8.90955394	     -5.58479309	     47.73956396	      0.83321257	    -10.89552447	      0.00000000	      0.00000000	     15.83610788	      5.82623676	     -3.07701215	     20.20730002	      0.35268392	     -0.67170351	      0.00000000	      0.00000000	    -17.83470493	     -9.81767541	      2.66939408	     -9.54500158	     -3.95125070	    -12.12966203	     56.50201882	     76.90110085	      2.76737410	      6.35059169	    -13.36263622	     -6.65707409	     -4.35202625	     37.08580064	     89.06160173	     -6.96668399	     12.67412671
      0.20000000	      2.50011315	      5.66771965	     -0.13752709	     -0.88162062	      0.95438355	      0.26110124	     -4.45796190	     -9.37756116	     -5.10179434	     50.35280905	      0.87882231	    -10.82045049	      0.00000000	      0.00000000	     15.85901778	      6.20576391	     -2.97058131	     20.37365373	      0.35558734	     -0.00340713	      0.00000000	      0.00000000	    -17.03897705	    -10.09652796	      1.90771077	     -9.62485431	     -3.95710084	    -11.39347762	     55.20643581	     77.90661391	      2.93145041	      7.03217140	    -13.27758524	     -6.71578328	     -4.67047437	     37.88456213	     89.07202406	     -6.29030630	     13.34805269
      0.21000000	      2.67555815	      5.59183480	      0.13389034	     -0.86998838	      0.95621043	      0.25969876	     -3.09791144	     -9.43697881	     -4.68669946	     52.39449205	      0.91445640	    -10.75035839	      0.00000000	      0.00000000	     14.84574141	      6.33698523	     -2.52754364	     20.29041887	      0.35413462	      0.74311599	      0.00000000	      0.00000000	    -17.35542043	     -9.95441850	      1.42256230	     -9.93907955	     -4.03566637	    -10.92374189	     54.53198252	     78.16036131	      3.03899173	      7.25671814	    -12.75677549	     -6.85330834	     -4.29738335	     38.61092485	     89.08447015	     -6.00978288	     13.40160803
      0.22000000	      2.84527494	      5.42974747	      0.41982613	     -0.85846211	      0.95803063	      0.25797828	     -1.73022357	     -9.48023358	     -4.53836911	     54.17512002	      0.94553422	    -10.27404321	      0.00000000	      0.00000000	     13.81506011	      6.36871894	     -2.32961197	     20.13783447	      0.35147152	      1.29850816	      0.00000000	      0.00000000	    -17.60632001	     -9.67541863	      1.00696768	    -10.21538435	     -4.13277440	    -10.59744640	     53.72275990	     78.37273430	      3.10601672	      7.48643753	    -12.12989529	     -6.88004888	     -3.99938422	     39.25596732	     89.09148325	     -5.81019363	     13.41684028
      0.23000000	      1.99194036	      5.74184452	      0.54244129	     -0.84694849	      0.95773732	      0.25702258	      0.93715035	     -9.93687132	     -3.93567899	     56.17334480	      0.98040982	     -8.59798359	      0.00000000	      0.00000000	     13.95802042	      6.81292581	     -2.25856140	     20.14522143	      0.35160044	      2.05488013	      0.00000000	      0.00000000	    -16.61283683	    -10.05224637	      0.19018221	    -10.24599619	     -4.21266894	     -9.67016867	     52.59726627	     79.64461451	      3.80692817	      8.64440810	    -12.15544474	     -7.04083891	     -4.43088069	     40.50196342	     89.08320863	     -4.57150536	     14.04948771
      0.24000000	      2.19768652	      5.57946101	      0.78236767	     -0.83561769	      0.95933530	      0.25550726	      2.24511738	     -9.89400011	     -3.75901009	     57.39008782	      1.00164599	     -7.09324309	      0.00000000	      0.00000000	     12.86068476	      6.83005785	     -1.92840146	     19.92917169	      0.34782966	      2.69835597	      0.00000000	      0.00000000	    -16.90164570	     -9.75892160	     -0.24606581	    -10.51613476	     -4.34727807	     -9.26307961	     51.94136014	     79.96217897	      4.04081358	      8.92939063	    -11.55723930	     -7.13220259	     -4.16871299	     41.38871795	     89.07508146	     -4.17233458	     14.03489583
      0.25000000	      2.07771597	      5.58912380	      1.05644576	     -0.82433460	      0.96027419	      0.25432812	      3.93967970	    -10.02377647	     -3.65159797	     58.48061585	      1.02067930	     -5.37806248	      0.00000000	      0.00000000	     12.12805140	      6.99357762	     -1.65633286	     19.72155464	      0.34420606	      3.17607714	      0.00000000	      0.00000000	    -16.79004634	     -9.69835691	     -1.05039502	    -10.58590986	     -4.35880143	     -8.79981136	     51.09454086	     80.91133701	      4.85623944	      9.77267474	    -11.24513720	     -7.17383968	     -4.76167574	     42.45799382	     89.08175230	     -3.04648169	     14.19843780
      0.26000000	      2.30579582	      5.37915036	      1.25442808	     -0.81317792	      0.96176824	      0.25305529	      5.17601851	     -9.89368194	     -3.58307086	     59.06840594	      1.03093817	     -3.58964831	      0.00000000	      0.00000000	     10.99113854	      6.92319209	     -1.30381134	     19.44354349	      0.33935385	      3.70159148	      0.00000000	      0.00000000	    -17.07331761	     -9.35686427	     -1.37601247	    -10.89158835	     -4.41773714	     -8.57895850	     50.52064770	     81.09589177	      4.98999585	      9.93912518	    -10.51676835	     -7.25261975	     -4.62342471	     43.28014198	     89.07078127	     -2.83052657	     14.07932752
      0.27000000	      2.46009680	      5.21866935	      1.47855659	     -0.80200677	      0.96305524	      0.25177605	      6.43358954	     -9.82625960	     -3.63787992	     59.35664517	      1.03596889	     -1.69225695	      0.00000000	      0.00000000	      9.93416832	      6.89270858	     -0.98629123	     19.15826701	      0.33437484	      4.18317078	      0.00000000	      0.00000000	    -17.25522540	     -9.05733994	     -1.79335745	    -11.17748302	     -4.43548308	     -8.42624412	     49.94780296	     81.37188728	      5.12481881	     10.14090286	     -9.83180296	     -7.29984336	     -4.68193902	     44.12221476	     89.05689632	     -2.63664515	     13.90102315
      0.28000000	      2.58999163	      5.05584956	      1.69350390	     -0.79090081	      0.96420308	      0.25058132	      7.68620000	     -9.75367632	     -3.76582376	     59.36867087	      1.03617878	      0.06828696	      0.00000000	      0.00000000	      8.89166199	      6.84651295	     -0.66491919	     18.83339450	      0.32870474	      4.61913093	      0.00000000	      0.00000000	    -17.39219192	     -8.75337706	     -2.19174188	    -11.45700046	     -4.41606588	     -8.37551390	     49.37797271	     81.62616989	      5.21721929	     10.31353938	     -9.13136047	     -7.32167903	     -4.86849237	     44.96134490	     89.04288943	     -2.50334408	     13.69463002
